<svg width="308" height="64" viewBox="0 0 308 64" fill="none" xmlns="http://www.w3.org/2000/svg">
<g clip-path="url(#clip0_277_165)">
<g clip-path="url(#clip1_277_165)">
<path d="M35.2444 10.0258C35.2444 10.2575 35.2294 10.4905 35.2471 10.7209C35.4281 13.1813 35.4839 15.643 34.7748 18.0343C34.21 19.9379 33.1484 21.5311 31.0893 22.0297C29.4819 22.4186 27.8365 22.3346 26.3748 21.3984C25.4343 20.7955 25.0532 19.8091 24.8368 18.7768C24.3782 16.5873 24.4353 14.3776 24.7293 12.1773C24.9865 10.2467 25.4711 8.36615 26.4401 6.64821C27.7603 4.30705 29.648 2.62162 32.1617 1.58111C34.93 0.43491 37.7418 0.302135 40.6135 0.990395C42.7163 1.4944 44.4447 2.61079 45.6669 4.41272C46.8619 6.17402 48.4964 7.08176 50.6291 7.12918C51.3981 7.14679 52.1657 7.21454 52.9346 7.25518C54.6645 7.34731 55.6035 8.53009 55.1626 10.1925C54.8046 11.5378 54.4222 12.894 53.8628 14.1635C52.7019 16.7973 50.6264 18.331 47.7506 18.7537C47.3477 18.8133 46.9422 18.8662 46.5379 18.9163C45.8329 19.0044 45.3539 19.5626 45.426 20.2766C45.6683 22.676 45.9255 25.0727 46.1814 27.4708C46.6128 31.5326 46.5025 35.5727 45.7118 39.5885C44.819 44.1164 44.276 48.6808 44.4611 53.3035C44.5169 54.6963 44.7047 56.085 44.8625 57.4724C44.9619 58.3422 45.3688 59.044 46.116 59.548C47.3219 60.3623 48.0813 61.4488 48.1997 62.9405C48.2446 63.5177 48.0772 63.8984 47.4661 63.9119C46.4263 63.935 45.3865 63.9079 44.3467 63.9038C42.964 63.8984 41.5798 63.8794 40.1971 63.893C39.4676 63.8997 38.9027 63.6776 38.6305 62.9608C38.1351 61.6548 37.6016 60.3609 37.1729 59.0332C36.2624 56.2178 35.3396 53.4133 33.9637 50.7781C33.26 49.4314 32.3305 48.2689 31.062 47.4316C29.9392 46.6906 28.6898 46.5456 27.2308 46.9602C27.9277 47.3842 28.5061 47.7013 29.045 48.0725C30.2032 48.8705 30.7259 50.0695 30.9504 51.3864C31.3247 53.5867 30.8538 55.6366 29.6888 57.5401C29.2247 58.2988 29.2805 58.3815 30.1815 58.5698C30.6918 58.6768 31.2145 58.7446 31.7085 58.899C33.207 59.3692 34.4468 61.8973 33.8997 63.3822C33.8221 63.5922 33.5554 63.8022 33.3308 63.874C32.9933 63.981 32.6163 64 32.257 63.9986C29.3104 63.9783 26.3639 63.9174 23.4173 63.9187C19.8406 63.9201 16.2639 63.9986 12.6872 63.9905C10.5804 63.9865 8.4654 63.9282 6.46065 63.1451C4.4559 62.362 3.03774 60.9055 1.8945 59.1456C0.680494 57.2773 0.185091 55.1922 0.0381036 52.9987C-0.149714 50.1888 0.434154 47.5807 2.01291 45.2192C2.08777 45.1067 2.14357 44.9591 2.24972 44.8927C2.44571 44.7707 2.6866 44.6041 2.88259 44.6339C3.01324 44.6529 3.16976 44.9699 3.19153 45.1677C3.30994 46.2421 3.37527 47.3233 3.48823 48.399C3.70327 50.4624 4.14559 52.4595 5.42493 54.1625C5.73116 54.5703 6.12993 54.9293 6.54639 55.2288C6.77096 55.39 7.16429 55.4902 7.4011 55.4035C7.5685 55.3426 7.65969 54.9266 7.68963 54.6584C7.88289 52.9337 7.96047 51.1927 8.24356 49.4842C8.82606 45.9684 10.1803 42.7385 12.1033 39.7321C14.2333 36.4032 16.8029 33.4402 19.5494 30.614C21.5909 28.514 23.4677 26.2948 24.6776 23.5891C24.962 22.9537 25.2724 22.8548 26.0141 23.1475C27.6405 23.791 29.3145 23.9468 31.0198 23.6095C33.1934 23.1786 34.6333 21.8319 35.5302 19.8633C36.8014 17.0751 36.5332 14.2367 35.7956 11.3847C35.6785 10.9322 35.5669 10.477 35.454 10.0231C35.3859 10.0231 35.3179 10.0231 35.2485 10.0231L35.2444 10.0258Z" fill="white"/>
<path d="M75.9559 47.0036C76.3996 47.3396 76.8582 47.6606 77.2856 48.017C78.9841 49.4274 79.2849 51.3309 79.0848 53.3605C78.9133 55.1069 78.2369 56.6703 77.0896 58.0211C76.767 58.4018 76.9004 58.6416 77.3604 58.7229C77.6721 58.7771 77.9892 58.8029 78.305 58.8286C79.9967 58.9668 80.9589 60.2769 81.1576 61.8797C81.4012 63.8469 81.3114 63.9147 79.3366 63.9133C73.0801 63.9093 66.8236 63.9066 60.5671 63.9052C59.956 63.9052 59.3449 63.8944 58.7352 63.9228C58.1595 63.9499 57.8955 63.6397 57.8192 63.137C57.6614 62.0897 57.4531 61.0438 57.3987 59.9897C57.1741 55.6407 57.7825 51.4081 59.1462 47.261C61.1101 41.2875 64.7181 36.4182 69.219 32.1437C70.7569 30.6831 72.4459 29.3825 74.0246 27.9613C74.4493 27.5778 74.7759 27.0549 75.0495 26.5441C75.6374 25.4467 75.176 24.4874 73.9471 24.1731C72.8528 23.894 71.7137 23.745 70.6643 23.3507C68.2758 22.4538 66.3976 19.5125 66.4765 16.983C66.5024 16.1376 66.8127 15.4777 67.6252 15.0659C69.0597 14.341 70.1322 13.2246 70.8957 11.8237C72.2907 9.26715 74.4792 7.76328 77.2529 7.02218C77.6462 6.9165 78.0396 6.80676 78.4275 6.68212C79.4087 6.36508 79.6088 5.97489 79.4795 4.95605C79.3244 3.72856 79.2087 2.4943 79.1406 1.25868C79.1229 0.930813 79.2522 0.506748 79.4727 0.279135C79.6701 0.0759083 80.111 -0.0433178 80.3995 0.0176501C81.423 0.231715 82.2764 0.799394 82.995 1.54591C84.6554 3.27333 86.3662 4.95876 87.934 6.76612C89.6298 8.72115 91.0915 10.8767 91.719 13.4238C92.1164 15.0334 92.2851 16.7066 92.4648 18.3622C93.0282 23.5336 92.982 28.7295 92.8336 33.9158C92.7411 37.1322 92.3886 40.3459 92.0293 43.5474C91.6972 46.5023 91.1528 49.4341 90.7989 52.3877C90.607 53.9905 90.5866 55.6176 90.5485 57.2353C90.5254 58.2149 91.1201 58.8584 91.9463 59.3163C93.4229 60.1347 94.0993 61.3811 93.9837 63.0652C93.9469 63.6112 93.721 63.9066 93.1507 63.9052C90.7077 63.8957 88.2634 63.9201 85.8218 63.8469C85.4733 63.8361 84.9793 63.4269 84.8255 63.0815C84.2784 61.8458 83.7735 60.5804 83.3897 59.2865C82.505 56.3032 81.781 53.271 80.831 50.3094C80.2702 48.5589 79.1651 47.1404 77.1753 46.7583C76.782 46.6825 76.3628 46.7475 75.9559 46.7475C75.9545 46.8342 75.9532 46.9209 75.9504 47.0063L75.9559 47.0036Z" fill="white"/>
</g>
<path d="M287.131 45.705L296.233 14.7268H308L293.86 55.0471C293.556 55.9338 293.155 56.8853 292.657 57.9017C292.159 58.9397 291.476 59.9236 290.609 60.8535C289.742 61.7834 288.626 62.5403 287.261 63.1242C285.917 63.708 284.249 64 282.255 64C281.193 64 280.413 63.9459 279.914 63.8378C279.438 63.7513 278.701 63.5891 277.704 63.3512V55.5337C277.986 55.5337 278.224 55.5337 278.419 55.5337C278.636 55.5337 278.874 55.5337 279.134 55.5337C280.305 55.5337 281.236 55.4147 281.93 55.1769C282.645 54.939 283.187 54.593 283.555 54.1389C283.945 53.6847 284.249 53.1333 284.465 52.4845L287.131 45.705ZM284.823 14.7268L291.747 39.2823L292.95 50.8626H285.603L273.088 14.7268H284.823Z" fill="white"/>
<path d="M269.473 0V49.8247H258.486V0H269.473Z" fill="white"/>
<path d="M251.036 14.7269V49.8247H240.049V14.7269H251.036ZM239.398 5.67669C239.398 4.11967 239.962 2.84378 241.089 1.84902C242.216 0.854254 243.678 0.356873 245.477 0.356873C247.276 0.356873 248.739 0.854254 249.866 1.84902C250.992 2.84378 251.556 4.11967 251.556 5.67669C251.556 7.23371 250.992 8.50961 249.866 9.50437C248.739 10.4991 247.276 10.9965 245.477 10.9965C243.678 10.9965 242.216 10.4991 241.089 9.50437C239.962 8.50961 239.398 7.23371 239.398 5.67669Z" fill="white"/>
<path d="M201.685 39.3796L208.186 14.7268H215.045L212.607 27.0856L206.17 49.8246H200.677L201.685 39.3796ZM199.117 14.7268L203.147 39.185L203.602 49.8246H196.939L188.617 14.7268H199.117ZM220.831 38.666L224.894 14.7268H235.394L227.137 49.8246H220.473L220.831 38.666ZM215.825 14.7268L222.391 39.3147L223.399 49.8246H217.84L211.534 27.1505L209.194 14.7268H215.825Z" fill="white"/>
<path d="M173.787 41.0016V26.5343C173.787 25.5395 173.647 24.6853 173.365 23.9717C173.083 23.2581 172.639 22.7066 172.032 22.3174C171.425 21.9065 170.613 21.701 169.594 21.701C168.771 21.701 168.066 21.8416 167.481 22.1227C166.896 22.4039 166.452 22.8256 166.148 23.3878C165.845 23.9501 165.693 24.6637 165.693 25.5287H154.739C154.739 23.9068 155.096 22.4039 155.811 21.0198C156.548 19.6142 157.588 18.3924 158.932 17.3544C160.297 16.3163 161.923 15.5162 163.808 14.9539C165.715 14.3701 167.839 14.0781 170.179 14.0781C172.975 14.0781 175.467 14.5431 177.656 15.473C179.866 16.4028 181.611 17.7977 182.889 19.6574C184.168 21.4956 184.807 23.8095 184.807 26.5992V40.9692C184.807 43.2615 184.937 45.0023 185.197 46.1917C185.457 47.3594 185.826 48.3866 186.302 49.2733V49.8247H175.315C174.795 48.7435 174.405 47.4243 174.145 45.8673C173.907 44.2887 173.787 42.6668 173.787 41.0016ZM175.12 28.3833L175.185 34.2221H170.342C169.323 34.2221 168.456 34.3626 167.741 34.6438C167.048 34.9249 166.484 35.3142 166.051 35.8115C165.639 36.2873 165.336 36.8279 165.141 37.4334C164.967 38.0389 164.881 38.6769 164.881 39.3473C164.881 39.996 165.032 40.5799 165.336 41.0989C165.661 41.5963 166.094 41.9856 166.636 42.2667C167.178 42.5478 167.785 42.6884 168.456 42.6884C169.67 42.6884 170.699 42.4613 171.545 42.0072C172.411 41.5314 173.072 40.9584 173.527 40.288C173.982 39.6176 174.21 38.9905 174.21 38.4066L176.616 42.883C176.182 43.748 175.684 44.6238 175.12 45.5105C174.578 46.3971 173.896 47.2189 173.072 47.9758C172.27 48.711 171.284 49.3165 170.114 49.7923C168.944 50.2464 167.525 50.4735 165.856 50.4735C163.689 50.4735 161.695 50.0302 159.875 49.1435C158.076 48.2569 156.635 47.0243 155.551 45.4456C154.468 43.8453 153.926 42.0072 153.926 39.9312C153.926 38.1146 154.251 36.4927 154.901 35.0655C155.573 33.6382 156.581 32.4272 157.924 31.4324C159.268 30.4377 160.98 29.6808 163.06 29.1618C165.141 28.6428 167.59 28.3833 170.407 28.3833H175.12Z" fill="white"/>
<path d="M128.955 21.474V63.3189H118V14.7269H128.207L128.955 21.474ZM150.539 31.8541V32.5353C150.539 35.0871 150.246 37.4551 149.661 39.6392C149.076 41.8234 148.209 43.7264 147.061 45.3483C145.912 46.9702 144.482 48.2353 142.77 49.1435C141.08 50.0302 139.118 50.4735 136.886 50.4735C134.784 50.4735 132.975 50.0085 131.458 49.0786C129.941 48.1488 128.673 46.8621 127.654 45.2185C126.636 43.575 125.812 41.6936 125.184 39.5743C124.555 37.4551 124.057 35.2168 123.689 32.8597V31.9839C124.057 29.4537 124.555 27.1074 125.184 24.9448C125.812 22.7607 126.636 20.8577 127.654 19.2358C128.673 17.6139 129.93 16.3488 131.425 15.4405C132.942 14.5323 134.752 14.0781 136.854 14.0781C139.086 14.0781 141.047 14.4998 142.737 15.3432C144.449 16.1866 145.88 17.3976 147.028 18.9763C148.198 20.5333 149.076 22.4039 149.661 24.588C150.246 26.7722 150.539 29.1942 150.539 31.8541ZM139.584 32.5353V31.8541C139.584 30.4917 139.487 29.2483 139.292 28.1237C139.097 26.9776 138.782 25.9828 138.349 25.1395C137.937 24.2961 137.385 23.6473 136.691 23.1932C135.998 22.7391 135.142 22.512 134.123 22.512C132.953 22.512 131.967 22.6958 131.165 23.0634C130.385 23.4094 129.756 23.9501 129.28 24.6853C128.825 25.399 128.5 26.2964 128.305 27.3777C128.131 28.4373 128.055 29.6808 128.077 31.108V33.7679C128.034 35.4115 128.196 36.8604 128.565 38.1146C128.933 39.3473 129.572 40.3096 130.482 41.0016C131.393 41.6936 132.628 42.0396 134.188 42.0396C135.228 42.0396 136.095 41.8017 136.789 41.326C137.482 40.8286 138.035 40.1474 138.447 39.2824C138.858 38.3958 139.151 37.3794 139.324 36.2332C139.498 35.0871 139.584 33.8544 139.584 32.5353Z" fill="white"/>
</g>
<defs>
<clipPath id="clip0_277_165">
<rect width="308" height="64" fill="white"/>
</clipPath>
<clipPath id="clip1_277_165">
<rect width="94" height="64" fill="white"/>
</clipPath>
</defs>
</svg>
